<svg width="20" height="20" viewBox="0 0 20 20" fill="none" xmlns="http://www.w3.org/2000/svg">
<path d="M14.1693 9.16667V6.66667C14.1693 4.36548 12.3038 2.5 10.0026 2.5C7.70142 2.5 5.83594 4.36548 5.83594 6.66667V9.16667M7.33594 17.5H12.6693C14.0694 17.5 14.7695 17.5 15.3042 17.2275C15.7747 16.9878 16.1571 16.6054 16.3968 16.135C16.6693 15.6002 16.6693 14.9001 16.6693 13.5V13.1667C16.6693 11.7665 16.6693 11.0665 16.3968 10.5317C16.1571 10.0613 15.7747 9.67883 15.3042 9.43915C14.7695 9.16667 14.0694 9.16667 12.6693 9.16667H7.33594C5.93581 9.16667 5.23574 9.16667 4.70096 9.43915C4.23056 9.67883 3.8481 10.0613 3.60842 10.5317C3.33594 11.0665 3.33594 11.7665 3.33594 13.1667V13.5C3.33594 14.9001 3.33594 15.6002 3.60842 16.135C3.8481 16.6054 4.23056 16.9878 4.70096 17.2275C5.23574 17.5 5.93581 17.5 7.33594 17.5Z" stroke="#EF4444" style="stroke:#EF4444;stroke:color(display-p3 0.9373 0.2667 0.2667);stroke-opacity:1;" stroke-width="1.66667" stroke-linecap="round" stroke-linejoin="round"/>
</svg>
