<svg width="20" height="20" viewBox="0 0 20 20" fill="none" xmlns="http://www.w3.org/2000/svg">
<path d="M9.9974 10.8334C10.4576 10.8334 10.8307 10.4603 10.8307 10C10.8307 9.53978 10.4576 9.16669 9.9974 9.16669C9.53716 9.16669 9.16406 9.53978 9.16406 10C9.16406 10.4603 9.53716 10.8334 9.9974 10.8334Z" stroke="#334155" style="stroke:#334155;stroke:color(display-p3 0.2000 0.2549 0.3333);stroke-opacity:1;" stroke-width="1.35" stroke-linecap="round" stroke-linejoin="round"/>
<path d="M9.9974 4.99998C10.4576 4.99998 10.8307 4.62688 10.8307 4.16665C10.8307 3.70641 10.4576 3.33331 9.9974 3.33331C9.53716 3.33331 9.16406 3.70641 9.16406 4.16665C9.16406 4.62688 9.53716 4.99998 9.9974 4.99998Z" stroke="#334155" style="stroke:#334155;stroke:color(display-p3 0.2000 0.2549 0.3333);stroke-opacity:1;" stroke-width="1.35" stroke-linecap="round" stroke-linejoin="round"/>
<path d="M9.9974 16.6667C10.4576 16.6667 10.8307 16.2936 10.8307 15.8333C10.8307 15.3731 10.4576 15 9.9974 15C9.53716 15 9.16406 15.3731 9.16406 15.8333C9.16406 16.2936 9.53716 16.6667 9.9974 16.6667Z" stroke="#334155" style="stroke:#334155;stroke:color(display-p3 0.2000 0.2549 0.3333);stroke-opacity:1;" stroke-width="1.35" stroke-linecap="round" stroke-linejoin="round"/>
</svg>
